<svg width="23" height="23" viewBox="0 0 23 23" fill="none" xmlns="http://www.w3.org/2000/svg">
<path d="M7.23329 21C15.9129 21 20.6595 13.6908 20.6595 7.35298C20.6595 7.14532 20.6553 6.93872 20.6459 6.73292C21.5673 6.05595 22.3683 5.21094 23 4.24946C22.1545 4.63129 21.2447 4.88841 20.2902 5.00434C21.2643 4.4106 22.0125 3.47093 22.3654 2.35098C21.4535 2.90058 20.4437 3.29996 19.3691 3.51533C18.5077 2.58311 17.2813 2 15.9244 2C13.3182 2 11.2048 4.14816 11.2048 6.79593C11.2048 7.17244 11.2464 7.53831 11.327 7.88956C7.40542 7.68934 3.92781 5.78048 1.60068 2.87851C1.19495 3.58712 0.961353 4.41086 0.961353 5.28911C0.961353 6.95308 1.79452 8.42214 3.06142 9.28178C2.28736 9.25758 1.56014 9.04114 0.924206 8.68165C0.92316 8.7016 0.92316 8.7218 0.92316 8.74281C0.92316 11.0659 2.55 13.0054 4.70893 13.4449C4.31261 13.5547 3.89564 13.6137 3.46505 13.6137C3.16108 13.6137 2.86548 13.5829 2.57799 13.5273C3.17861 15.4327 4.92082 16.8196 6.98635 16.8587C5.37102 18.1454 3.33635 18.9119 1.12563 18.9119C0.745015 18.9119 0.369369 18.8899 0 18.8455C2.08829 20.2058 4.56793 21 7.23329 21Z" fill="white"/>
</svg>
