<svg width="175" height="20" viewBox="0 0 175 20" fill="none" xmlns="http://www.w3.org/2000/svg">
<path d="M13.5891 19.347C19.3422 19.347 21.6484 17.2392 22.3675 16.4456C22.7147 17.1152 23.1115 18.4047 23.2354 18.9998H27.6742L27.6742 8.60956L14.0107 8.60956V12.2052L20.4829 12.2052C20.4829 12.8004 18.9454 14.5114 14.1843 14.5114C9.62149 14.5114 7.86085 12.2052 7.86085 9.84945V9.57667C7.86085 7.14649 9.27432 5.01389 14.2339 5.01389C19.4414 5.01389 20.0861 6.87372 20.2101 7.34487L27.5503 7.34487V7.32008C27.4511 4.74111 25.9136 0.203125 14.6058 0.203125L13.6387 0.203125C2.75251 0.203125 0.570312 5.38585 0.570312 9.35349L0.570312 10.0478C0.570312 13.9411 2.9261 19.347 13.0188 19.347H13.5891Z" fill="white"/>
<path d="M38.3417 5.03868L46.4258 5.03868C48.0128 5.03868 48.5584 5.73302 48.5584 6.60094V6.62574C48.5584 7.51846 47.988 8.2128 46.4258 8.2128L38.3417 8.2128V5.03868ZM38.3417 12.6764L45.0867 12.6764C47.8641 12.6764 48.8312 13.7675 48.8312 15.8753V18.0327C48.8312 18.5535 48.8808 18.8014 49.0544 18.9998L56.2457 18.9998V18.8758C56.0721 18.5535 55.8985 18.0823 55.8985 16.7928V14.0651C55.8985 11.6845 54.3859 10.1966 52.1045 9.67586C53.4932 9.35349 55.8241 8.23759 55.8241 5.55944V5.28666C55.8241 2.28613 53.4436 0.550293 48.0624 0.550293L31.2992 0.550293L31.2992 18.9998L38.3417 18.9998V12.6764Z" fill="white"/>
<path d="M74.6972 11.4117L68.5721 11.4117L71.5974 5.06348L74.6972 11.4117ZM78.392 18.9998H86.1041L76.4578 0.550293L66.9851 0.550293L57.8595 18.9998H65.0012L66.4147 16.0241L76.9537 16.0241L78.392 18.9998Z" fill="white"/>
<path d="M101.606 18.9998L110.26 0.550293L102.945 0.550293L97.1174 13.4203L90.918 0.550293L82.9331 0.550293L92.257 18.9998L101.606 18.9998Z" fill="white"/>
<path d="M119.514 0.550293L112.496 0.550293V18.9998H119.514V0.550293Z" fill="white"/>
<path d="M130.646 18.9998H137.688V5.58424L145.649 5.58424V0.550293L122.686 0.550293V5.58424L130.646 5.58424V18.9998Z" fill="white"/>
<path d="M157.364 18.9998H164.407V12.106L174.276 0.550293L166.564 0.550293L161.084 6.92331L155.703 0.550293L147.271 0.550293L157.364 12.0564V18.9998Z" fill="white"/>
</svg>
