<svg width="184" height="2" viewBox="0 0 184 2" fill="none" xmlns="http://www.w3.org/2000/svg">
<path fill-rule="evenodd" clip-rule="evenodd" d="M181.444 0.5L184 0.5L184 1.5L181.444 1.5L181.444 0.5ZM171.222 0.5L176.333 0.5L176.333 1.5L171.222 1.5L171.222 0.5ZM161 0.5L166.111 0.5L166.111 1.5L161 1.5L161 0.5ZM150.778 0.5L155.889 0.5L155.889 1.5L150.778 1.5L150.778 0.5ZM140.556 0.5L145.667 0.5L145.667 1.5L140.556 1.5L140.556 0.5ZM130.333 0.5L135.444 0.5L135.444 1.5L130.333 1.5L130.333 0.5ZM120.111 0.5L125.222 0.5L125.222 1.5L120.111 1.5L120.111 0.5ZM109.889 0.5L115 0.5L115 1.5L109.889 1.5L109.889 0.5ZM99.6666 0.5L104.778 0.5L104.778 1.5L99.6666 1.5L99.6666 0.5ZM89.4444 0.5L94.5555 0.5L94.5555 1.5L89.4444 1.5L89.4444 0.5ZM79.2222 0.5L84.3333 0.5L84.3333 1.5L79.2222 1.5L79.2222 0.5ZM69 0.5L74.1111 0.5L74.1111 1.5L69 1.5L69 0.5ZM58.7777 0.5L63.8888 0.5L63.8888 1.5L58.7777 1.5L58.7777 0.5ZM48.5555 0.5L53.6666 0.5L53.6666 1.5L48.5555 1.5L48.5555 0.5ZM38.3333 0.5L43.4444 0.5L43.4444 1.5L38.3333 1.5L38.3333 0.5ZM28.1111 0.5L33.2222 0.5L33.2222 1.5L28.1111 1.5L28.1111 0.5ZM17.8888 0.5L22.9999 0.5L22.9999 1.5L17.8888 1.5L17.8888 0.5ZM7.66658 0.5L12.7777 0.5L12.7777 1.5L7.6666 1.5L7.66658 0.5ZM0 0.5L2.55548 0.5L2.55548 1.5L-8.74242e-08 1.5L0 0.5Z" fill="white"/>
</svg>
